<?xml version="1.0" standalone="no"?>
<!DOCTYPE svg PUBLIC "-//W3C//DTD SVG 20010904//EN"
 "http://www.w3.org/TR/2001/REC-SVG-20010904/DTD/svg10.dtd">
<svg version="1.0" xmlns="http://www.w3.org/2000/svg"
 width="2048.000000pt" height="2048.000000pt" viewBox="0 0 2048.000000 2048.000000"
 preserveAspectRatio="xMidYMid meet">
<metadata>
Created by potrace 1.14, written by Peter Selinger 2001-2017
</metadata>
<g transform="translate(0.000000,2048.000000) scale(0.100000,-0.100000)"
fill="#000000" stroke="none">
<path d="M10110 19961 c-60 -19 -154 -75 -190 -113 -42 -44 -84 -113 -106
-173 l-22 -60 -103 -17 c-123 -20 -215 -46 -230 -65 -9 -10 -8 -17 2 -29 15
-18 121 -72 263 -135 82 -36 102 -49 123 -81 44 -71 163 -128 265 -128 l48 0
0 -76 c0 -117 54 -261 131 -348 33 -38 26 -46 -39 -46 -60 0 -245 -46 -344
-86 -51 -20 -141 -61 -200 -90 -59 -30 -113 -54 -119 -54 -19 0 -157 -90 -210
-137 -45 -41 -58 -47 -142 -64 -119 -23 -252 -62 -344 -101 -104 -43 -322
-191 -427 -289 -170 -160 -372 -405 -489 -595 -72 -118 -180 -334 -223 -446
-42 -111 -126 -403 -149 -523 -55 -278 -71 -388 -90 -615 -25 -309 -19 -452
36 -840 41 -289 76 -446 95 -427 2 2 -2 50 -11 105 -20 136 -20 461 1 640 18
159 29 189 39 111 19 -157 162 -506 295 -724 32 -53 40 -59 71 -61 19 -2 40 1
47 5 8 5 -2 58 -38 196 -27 105 -50 197 -50 205 0 8 21 -23 46 -70 25 -47 62
-112 82 -145 20 -33 60 -101 87 -152 73 -137 168 -265 272 -368 l92 -92 -9
-64 c-15 -100 -12 -333 5 -439 48 -295 206 -575 423 -750 l44 -35 -91 -177
c-90 -175 -104 -214 -78 -224 18 -6 176 53 339 127 114 51 136 58 200 60 65 2
73 0 76 -17 8 -60 26 -131 44 -172 39 -87 176 -210 288 -257 25 -10 49 -22 53
-25 5 -4 -40 -52 -100 -106 -239 -217 -316 -310 -450 -541 -133 -231 -301
-634 -320 -769 -7 -50 -4 -54 105 -134 34 -25 60 -52 59 -60 -1 -8 -18 -25
-37 -38 -44 -30 -82 -25 -158 20 -65 38 -233 201 -313 303 -66 83 -149 200
-149 208 0 4 36 51 81 107 97 120 284 284 384 336 96 51 105 67 59 109 l-26
25 26 10 c15 5 32 10 37 10 23 0 0 26 -118 132 -283 252 -533 455 -767 622
-149 106 -149 106 -208 106 -136 0 -298 -55 -421 -144 -139 -99 -279 -240
-319 -322 l-21 -41 -91 -6 c-190 -10 -379 -109 -565 -296 -151 -151 -243 -321
-227 -419 8 -47 8 -60 1 -98 -7 -29 -1 -36 147 -162 206 -176 317 -260 548
-415 107 -72 235 -159 283 -194 48 -35 94 -63 101 -63 7 0 51 37 97 83 46 46
106 98 132 116 l49 33 15 -22 c105 -150 297 -372 455 -526 218 -213 400 -344
633 -459 209 -101 318 -140 395 -139 190 4 383 108 519 280 30 38 57 72 61 76
3 4 5 -138 4 -316 l-2 -324 -45 -64 c-73 -101 -89 -154 -91 -284 -1 -97 2
-116 23 -162 29 -63 40 -47 -144 -208 -71 -62 -202 -183 -290 -269 l-160 -155
-75 0 c-70 0 -304 -23 -377 -36 -20 -4 -40 -18 -55 -39 -13 -18 -77 -104 -144
-191 -66 -88 -123 -167 -127 -176 -4 -11 -22 -19 -54 -23 -76 -11 -348 -83
-458 -122 -367 -131 -546 -261 -647 -472 -79 -165 -75 -609 8 -924 26 -99 46
-222 79 -492 56 -443 84 -608 180 -1080 123 -602 142 -698 185 -945 48 -277
65 -353 126 -559 l45 -154 -11 -126 c-21 -238 -54 -311 -252 -562 -155 -196
-218 -331 -218 -466 0 -135 43 -230 127 -283 63 -40 99 -49 220 -57 l102 -6 3
-56 c3 -48 0 -59 -20 -74 -12 -11 -34 -41 -48 -69 -65 -128 1 -268 126 -268
88 0 153 71 166 182 8 69 1 98 -31 136 -21 25 -24 34 -15 57 5 14 10 46 10 69
0 51 5 56 90 83 36 12 121 46 190 76 69 30 146 62 173 72 26 9 103 45 170 78
143 73 156 89 188 240 16 73 18 114 14 202 -16 287 -72 553 -166 790 l-48 121
9 94 c36 366 58 1069 42 1380 -5 107 -8 197 -6 199 1 2 30 -51 63 -118 74
-146 168 -306 272 -462 42 -63 112 -171 156 -240 95 -149 211 -308 266 -366
39 -40 40 -43 34 -93 -8 -68 -82 -253 -169 -421 -63 -123 -77 -143 -143 -203
-81 -73 -133 -161 -156 -262 -20 -88 10 -242 62 -320 51 -74 183 -125 322
-123 54 1 74 8 157 52 170 89 336 194 517 326 40 29 77 50 83 46 5 -3 10 -34
10 -68 0 -46 -6 -75 -25 -111 -45 -88 -26 -154 58 -208 96 -61 172 -37 212 69
22 58 14 107 -24 147 -29 31 -29 33 -33 170 l-5 138 95 70 c112 83 140 130
149 252 7 87 -20 193 -68 265 -16 25 -29 49 -29 54 0 11 -115 201 -136 227
-11 13 -12 171 -8 810 3 437 7 819 10 848 5 44 10 55 28 62 38 14 63 56 76
127 13 78 67 167 148 246 l49 48 40 -54 c71 -93 180 -285 289 -507 188 -381
310 -581 439 -718 89 -95 146 -139 241 -186 137 -67 266 -95 333 -73 l41 15 0
-387 c0 -212 9 -714 19 -1116 11 -401 23 -1002 27 -1336 l7 -605 -35 -46 c-58
-76 -60 -137 -7 -214 53 -78 145 -97 217 -45 50 37 65 80 60 171 -3 52 -9 75
-25 92 -20 23 -21 31 -27 728 -3 388 -13 923 -21 1190 -8 267 -18 722 -21
1012 l-7 528 59 0 c50 0 75 7 143 40 239 116 342 237 425 500 33 104 66 335
66 463 0 322 134 621 395 883 125 126 157 150 180 137 27 -16 206 -196 250
-253 104 -136 273 -382 371 -541 174 -283 272 -397 391 -455 61 -30 129 -29
163 1 11 10 22 16 25 14 2 -3 11 -194 20 -424 24 -653 31 -778 85 -1490 5 -71
31 -392 57 -712 43 -529 46 -584 32 -595 -56 -45 -65 -125 -22 -193 32 -51 63
-71 131 -86 41 -8 56 -8 80 5 30 16 41 37 61 119 16 67 15 75 -19 142 -18 36
-30 76 -30 100 0 22 -11 171 -25 330 -33 386 -59 718 -90 1135 -38 521 -44
622 -55 910 -29 752 -32 968 -24 1430 12 666 11 750 -16 905 -40 235 -109 438
-165 487 -24 21 -25 25 -20 122 2 56 0 144 -6 196 -7 66 -6 130 2 210 14 149
94 589 114 626 8 16 14 49 14 74 -1 48 68 363 177 810 110 455 151 629 234
995 44 193 84 368 90 390 5 22 50 220 101 440 144 631 214 899 333 1275 98
307 135 401 174 437 31 30 34 36 30 80 -4 42 6 76 87 283 78 198 214 522 331
787 20 46 34 65 56 74 77 32 129 220 85 304 -30 58 -101 105 -159 105 -39 0
-114 -32 -146 -63 -61 -57 -88 -181 -58 -267 8 -24 14 -45 13 -45 -190 -75
-393 -70 -576 15 -114 52 -306 115 -401 130 -48 8 -172 12 -345 11 -244 -1
-283 -4 -404 -27 -182 -34 -305 -75 -415 -138 -50 -29 -120 -66 -156 -82 -36
-15 -84 -38 -107 -51 -23 -13 -44 -23 -47 -23 -4 0 -9 56 -26 325 -40 627
-101 1378 -145 1770 -8 72 -17 159 -19 195 -6 91 -29 229 -82 490 -56 280 -72
335 -142 485 -296 632 -562 992 -1032 1397 -240 207 -455 352 -692 467 l-177
87 35 28 c46 36 120 136 151 204 28 60 17 57 198 53 133 -3 266 12 300 35 36
23 119 151 134 207 14 50 8 113 -12 120 -7 2 -48 -4 -92 -14 -165 -38 -473
-99 -556 -110 l-85 -11 -59 61 c-64 67 -187 151 -274 186 -31 13 -95 31 -142
40 -78 16 -91 16 -138 2 -28 -8 -51 -14 -51 -12 0 25 -34 186 -45 212 -22 51
-97 163 -131 194 -101 91 -267 124 -404 80z m245 -43 c58 -14 141 -81 182
-146 86 -133 107 -270 65 -409 -26 -84 -23 -97 43 -183 70 -91 168 -155 281
-183 171 -43 397 -20 479 48 l30 25 -22 41 c-25 46 -30 43 82 59 90 13 389 73
476 95 77 20 89 19 89 -7 -1 -50 -89 -196 -134 -220 -13 -8 -102 -14 -251 -18
l-229 -5 -6 -30 c-15 -71 -94 -184 -173 -249 l-45 -37 -89 17 c-48 9 -117 26
-153 37 -44 14 -100 22 -175 25 l-110 4 -98 -46 c-87 -40 -103 -44 -148 -39
-41 5 -59 14 -99 50 -95 86 -159 263 -140 393 5 36 10 69 10 74 0 5 -29 6 -65
3 -49 -5 -80 -2 -126 12 -81 26 -123 61 -156 129 -25 51 -28 68 -28 157 1 113
12 154 64 237 95 149 263 211 446 166z m-565 -412 c0 -29 3 -68 6 -85 8 -38
14 -39 -151 39 -92 44 -107 53 -90 61 23 10 167 37 208 38 26 1 27 -1 27 -53z
m1092 -75 c193 -42 365 -160 473 -325 15 -23 15 -25 -4 -35 -75 -41 -294 -55
-404 -26 -119 31 -230 110 -284 203 l-26 43 19 55 c21 63 57 90 135 103 3 1
44 -7 91 -18z m-1812 -3686 c17 -49 53 -136 80 -191 l48 -102 -107 -25 c-65
-15 -108 -21 -112 -15 -13 20 -18 291 -9 458 5 96 10 177 10 180 1 3 14 -44
30 -105 16 -60 43 -150 60 -200z m420 -251 c0 -7 -89 -4 -93 4 -3 4 -12 50
-20 102 -33 201 -35 198 42 42 39 -79 71 -146 71 -148z m92 -148 c72 -117 135
-192 187 -224 86 -54 196 -109 254 -128 52 -16 58 -21 67 -53 51 -192 138
-569 249 -1086 36 -169 122 -629 151 -815 12 -74 25 -157 30 -185 4 -27 7 -52
5 -53 -2 -2 -24 10 -50 28 -62 43 -182 96 -274 122 -60 17 -104 22 -209 22
-108 1 -133 4 -137 16 -2 8 -11 46 -20 83 -22 101 -62 174 -132 245 -84 85
-169 125 -277 130 -43 3 -88 0 -100 -6 -124 -57 -157 -76 -192 -106 -51 -44
-106 -125 -128 -188 -8 -26 -16 -79 -17 -118 -1 -38 -5 -70 -9 -70 -11 0 -84
90 -130 161 -81 126 -143 276 -176 431 -18 81 -20 162 -11 523 2 66 1 70 -24
82 -61 29 -230 229 -317 374 l-22 36 95 -5 c52 -2 95 -2 95 0 0 3 -7 25 -15
48 -29 82 -74 286 -99 450 -16 102 -30 295 -20 270 23 -56 104 -206 141 -263
55 -83 136 -173 174 -192 35 -18 39 -19 39 -2 0 8 67 42 160 82 126 53 159 71
155 84 -8 29 -35 220 -35 255 l0 34 105 26 c57 14 113 26 124 26 14 0 39 -27
80 -87 75 -109 218 -283 232 -283 17 0 7 37 -55 215 -31 88 -55 167 -54 175 3
14 60 29 97 26 8 0 36 -36 63 -80z m5547 -1777 c79 -20 183 -58 241 -88 151
-78 393 -113 560 -81 29 6 55 9 57 7 2 -2 -25 -71 -60 -153 -35 -82 -67 -157
-70 -167 -6 -17 -11 -16 -49 12 -24 17 -73 38 -110 48 -118 31 -217 -3 -391
-134 -129 -96 -200 -165 -269 -262 -143 -198 -185 -243 -294 -310 -85 -52
-120 -43 -227 59 -53 50 -82 86 -100 127 -46 103 -52 143 -39 240 37 277 41
296 82 379 77 157 163 244 241 244 83 0 107 -28 134 -155 14 -67 4 -109 -37
-152 -35 -37 -55 -38 -94 -4 -42 37 -89 41 -127 11 -40 -32 -45 -80 -13 -135
52 -88 156 -118 272 -78 95 32 193 167 202 277 5 64 -29 210 -67 281 -14 28
-28 54 -30 58 -5 12 99 -2 188 -24z m-720 -41 c-28 -35 -56 -73 -62 -85 -14
-31 -20 -29 -52 18 -16 22 -42 47 -58 56 -16 8 -25 18 -21 23 9 9 183 47 221
49 20 1 17 -6 -28 -61z m-4860 -161 c130 -64 213 -175 245 -329 8 -37 17 -71
20 -77 4 -6 -5 -33 -19 -60 -21 -42 -25 -64 -25 -134 0 -192 72 -291 272 -376
62 -26 183 -51 251 -51 69 0 228 40 300 75 64 32 161 106 177 135 10 18 6 26
-29 59 -23 21 -41 43 -41 49 0 6 26 13 58 17 86 10 340 43 399 53 29 5 55 7
58 4 18 -19 -17 -418 -39 -440 -4 -3 -72 26 -152 66 -149 74 -171 82 -180 58
-9 -24 -128 -114 -213 -162 -86 -48 -195 -91 -302 -120 -102 -27 -302 -21
-415 12 -112 32 -162 61 -247 142 -83 80 -118 149 -125 244 -3 40 -10 72 -18
79 -9 7 -36 10 -72 7 -191 -17 -376 130 -411 328 -21 117 20 246 107 333 56
56 111 87 197 112 76 21 123 15 204 -24z m4555 -1 c26 -11 43 -31 76 -91 42
-75 42 -79 36 -144 -7 -64 -46 -234 -87 -376 -22 -76 -77 -170 -175 -306 -112
-152 -204 -219 -325 -235 l-52 -7 6 99 c4 54 10 240 13 411 l7 313 31 -62 c62
-125 181 -168 286 -106 127 75 190 206 132 272 -49 54 -116 39 -161 -34 -17
-27 -39 -53 -49 -59 -29 -15 -46 10 -39 56 10 61 81 197 131 248 44 46 47 48
90 42 25 -4 61 -13 80 -21z m-453 -115 c-6 -10 -19 -49 -30 -87 l-20 -69 0 64
c-1 53 3 69 21 88 26 28 43 30 29 4z m2046 -313 c25 -20 30 -48 21 -105 -11
-72 -42 -131 -75 -144 -37 -14 -47 -7 -61 39 -34 113 -182 86 -182 -33 0 -49
33 -127 67 -157 10 -10 36 -24 57 -33 21 -9 37 -18 35 -19 -13 -10 -240 -82
-379 -120 -91 -24 -178 -49 -194 -56 -24 -9 -32 -8 -45 4 -13 14 -9 20 32 57
54 47 134 144 227 273 64 89 180 193 308 275 79 50 144 57 189 19z m-5512 -38
c167 -43 301 -125 487 -299 36 -33 37 -36 20 -54 -57 -64 -197 -125 -333 -147
-157 -25 -354 37 -463 146 -50 51 -69 101 -73 199 -5 101 11 149 57 173 35 18
201 8 305 -18z m-970 -277 l59 -31 -70 -32 c-115 -53 -265 -112 -271 -107 -3
3 28 69 67 146 l72 140 43 -42 c23 -23 68 -57 100 -74z m5174 -266 c54 -53
111 -97 139 -109 26 -12 43 -23 37 -24 -27 -9 -378 -78 -505 -100 -80 -13
-153 -27 -162 -30 -10 -3 -18 -1 -18 5 0 6 4 11 9 11 4 0 31 19 60 42 60 49
139 145 229 280 l65 98 27 -43 c15 -23 68 -82 119 -130z m-6248 -48 c226 -161
425 -321 712 -572 l149 -130 -58 -25 c-70 -29 -196 -100 -279 -155 -133 -91
-268 -255 -311 -380 l-16 -48 -122 118 c-157 153 -337 303 -671 560 -187 144
-271 215 -273 230 -12 81 247 334 432 423 83 39 164 58 252 59 l71 1 114 -81z
m7395 -51 c-9 -23 -134 -411 -165 -513 -85 -286 -198 -754 -456 -1900 -41
-182 -93 -400 -224 -945 -92 -386 -152 -647 -182 -797 l-13 -61 -75 -50 c-118
-76 -121 -77 -121 -48 0 66 61 442 126 781 148 769 347 1601 564 2360 114 398
180 576 334 909 52 110 97 210 100 222 4 13 22 26 54 36 60 20 65 21 58 6z
m-4921 -264 c13 -143 14 -186 4 -216 -10 -31 -9 -44 4 -80 23 -59 41 -245 33
-343 -7 -98 -52 -317 -101 -490 -71 -251 -223 -701 -269 -797 l-47 -96 -37 10
c-54 15 -262 103 -366 155 -111 56 -258 149 -480 307 -185 131 -273 207 -282
240 -20 79 115 413 289 716 148 258 304 443 426 504 57 30 158 56 214 56 30 0
37 4 37 20 0 26 -68 44 -135 35 l-50 -6 36 36 36 36 101 -12 c79 -10 123 -10
200 -1 94 11 275 62 339 96 15 8 29 13 30 12 1 -1 10 -83 18 -182z m4575 172
c0 -2 -27 -61 -60 -131 -157 -331 -264 -651 -445 -1325 -273 -1018 -548 -2341
-581 -2792 l-7 -96 -68 -31 c-38 -17 -74 -31 -81 -31 -33 0 37 696 122 1217
133 805 362 1783 602 2563 61 199 91 278 165 432 l56 117 66 16 c36 8 100 26
141 39 78 25 90 28 90 22z m-540 -130 c0 -2 -16 -39 -36 -82 -112 -245 -378
-1201 -544 -1954 -63 -284 -169 -847 -209 -1105 -67 -436 -129 -1054 -117
-1166 l7 -56 -48 -19 c-26 -10 -51 -20 -54 -22 -4 -1 -7 20 -8 48 -1 60 -35
130 -89 186 -36 37 -103 73 -136 74 -20 0 -20 -14 5 355 14 208 71 729 100
906 10 65 10 65 40 61 l31 -5 -7 179 c-8 195 -9 185 65 667 131 854 214 1181
425 1667 37 85 71 159 76 164 8 9 106 31 359 81 127 25 140 27 140 21z m-746
-173 c-159 -368 -252 -660 -321 -1008 -26 -131 -28 -137 -34 -95 -4 25 -3 221
2 435 12 547 14 624 20 630 5 5 311 72 337 74 9 1 8 -8 -4 -36z m-6509 -129
c425 -327 559 -437 768 -627 59 -54 107 -103 107 -108 0 -5 -22 -9 -50 -9
-150 0 -397 -113 -634 -292 -95 -71 -122 -97 -200 -193 l-24 -29 -153 104
c-278 187 -446 315 -644 486 -71 61 -143 126 -159 143 -28 29 -29 31 -16 78
27 98 78 179 184 290 122 129 278 234 411 276 64 20 87 24 160 25 l60 2 190
-146z m3271 -1056 c-4 -145 -14 -352 -21 -461 -14 -197 -11 -290 15 -502 47
-395 90 -595 175 -830 68 -188 148 -335 171 -313 3 3 -6 48 -20 99 -26 96 -77
356 -75 387 0 9 6 -1 13 -23 22 -69 83 -193 130 -264 54 -81 147 -171 176
-171 21 0 21 1 -4 43 -48 81 -135 442 -151 626 -6 66 -3 59 50 -114 44 -144
176 -408 244 -489 25 -30 47 -53 49 -52 1 2 -16 50 -39 107 -39 99 -129 380
-129 403 0 6 22 -35 49 -91 53 -110 120 -218 169 -271 l30 -34 59 17 c135 39
423 162 457 195 5 5 0 23 -12 42 -23 37 -112 315 -168 523 -3 11 12 -12 34
-50 51 -92 87 -150 129 -204 l33 -44 0 -418 0 -419 -22 -14 c-49 -32 -280
-126 -403 -164 -401 -125 -735 -188 -950 -179 -235 9 -354 45 -465 142 -122
106 -287 267 -325 317 -22 29 -56 69 -76 89 -56 55 -62 74 -61 170 2 102 22
164 81 242 60 79 62 90 46 224 -10 75 -15 209 -15 370 l0 253 51 97 c28 54 52
99 53 101 2 1 38 -13 81 -32 101 -47 260 -100 277 -93 17 6 49 92 181 482 98
288 162 488 174 543 13 58 15 2 9 -240z m-1917 -108 c107 -107 151 -144 207
-173 107 -55 182 -49 256 21 l28 25 113 -75 c123 -83 367 -232 444 -272 93
-47 91 -42 47 -127 -21 -41 -45 -85 -54 -99 -151 -232 -223 -306 -355 -370
-150 -72 -254 -78 -397 -25 -158 60 -405 189 -508 267 -239 179 -475 418 -669
677 l-100 134 45 29 c118 75 448 222 550 246 71 17 80 22 93 50 l14 31 75
-102 c41 -56 136 -163 211 -237z m4286 -760 c29 -107 25 -126 -47 -193 -35
-33 -71 -63 -80 -68 -16 -9 -17 -5 -12 38 10 95 23 201 45 377 l23 179 27
-134 c15 -74 35 -163 44 -199z m300 -367 c18 -31 18 -35 -13 -270 -58 -434
-99 -844 -103 -1015 -1 -38 -5 -68 -9 -68 -14 0 -39 116 -49 230 -27 291 -31
359 -31 556 0 272 11 607 20 597 4 -4 19 -38 34 -74 16 -37 43 -81 62 -99 37
-34 39 -32 24 19 -10 37 -25 145 -35 256 l-6 70 44 -85 c24 -47 52 -100 62
-117z m-816 -101 c22 -32 62 -83 90 -113 l49 -55 -14 -185 c-23 -293 -11 -261
-139 -351 -104 -73 -229 -149 -267 -164 -17 -6 -18 8 -18 202 0 115 3 252 6
304 l7 95 124 -1 125 -1 24 -29 c32 -40 31 -19 -7 113 -29 99 -69 294 -69 332
0 9 11 -7 24 -36 14 -29 43 -79 65 -111z m519 -204 c-3 -380 -3 -384 57 -908
16 -145 45 -246 80 -288 22 -27 25 -38 24 -113 -1 -46 -4 -122 -7 -169 l-7
-84 -46 -18 -46 -17 -7 102 c-8 124 -31 264 -61 377 -58 216 -88 318 -144 490
-34 101 -61 193 -61 205 1 11 9 45 20 75 14 40 19 82 20 153 l0 97 24 -6 c13
-3 26 -2 29 3 2 4 -6 49 -19 98 -13 52 -23 120 -24 162 l0 71 83 66 c45 36 83
65 85 65 1 1 1 -162 0 -361z m431 -1322 c31 -27 81 -105 81 -126 0 -8 -9 -21
-20 -28 -11 -7 -20 -21 -20 -31 0 -16 -9 -20 -56 -23 -31 -1 -57 -1 -58 2 -1
3 -1 58 2 123 4 115 5 117 26 111 11 -3 32 -16 45 -28z m971 -60 c0 -8 -9 -60
-20 -116 -16 -80 -49 -325 -50 -363 0 -4 -35 21 -77 56 -106 87 -159 120 -270
163 -51 21 -90 40 -86 44 5 3 69 32 143 63 75 32 183 81 240 111 121 61 120
61 120 42z m-6111 -453 c59 -174 143 -329 280 -513 130 -176 361 -403 461
-455 19 -10 67 -29 105 -41 67 -22 68 -23 30 -24 -98 -1 -649 33 -830 51 -110
11 -273 34 -363 50 -90 16 -168 27 -173 24 -14 -9 -11 -30 9 -47 9 -9 69 -25
132 -37 154 -29 150 -27 107 -57 -54 -36 -77 -88 -77 -174 0 -87 16 -126 74
-185 l46 -45 -22 -46 -22 -45 -141 1 c-77 1 -203 8 -280 15 -77 8 -197 17
-266 21 -69 3 -130 9 -136 12 -15 11 -62 187 -78 292 -7 52 -19 168 -26 257
-21 264 6 428 88 553 48 72 155 177 225 218 133 79 485 209 668 248 165 35
151 40 189 -73z m6055 -632 c66 -51 124 -128 142 -188 37 -122 88 -492 70
-510 -2 -3 -17 19 -32 49 -83 164 -217 350 -323 451 -39 37 -76 67 -82 67 -6
0 -9 5 -7 11 3 10 168 158 177 159 2 0 27 -18 55 -39z m-341 -285 c80 -58 119
-99 207 -221 138 -192 250 -460 304 -731 23 -113 26 -151 24 -285 -3 -131 -5
-153 -18 -150 -62 17 -80 13 -115 -24 -19 -20 -39 -34 -44 -31 -29 18 -135
166 -235 329 -113 182 -313 471 -422 608 -28 36 -96 107 -150 158 -79 74 -96
95 -84 102 8 6 94 58 190 117 96 59 195 122 220 139 25 18 49 32 53 33 5 0 36
-20 70 -44z m-1187 -655 c-67 -100 -145 -252 -179 -347 -41 -114 -58 -217 -68
-403 -15 -287 -45 -435 -119 -581 -52 -102 -122 -165 -269 -239 -37 -19 -47
-21 -72 -11 -28 12 -29 15 -29 84 0 173 44 955 60 1068 18 126 69 222 149 280
31 23 72 53 91 68 24 18 62 32 124 44 80 16 295 88 343 114 10 6 19 9 21 8 1
-2 -22 -40 -52 -85z m-3398 -62 c137 -11 158 -15 192 -38 143 -97 239 -194
269 -275 11 -30 23 -88 27 -130 7 -83 27 -120 72 -137 l25 -10 -6 -316 c-4
-174 -7 -498 -7 -721 l0 -405 -39 44 c-26 29 -93 150 -195 354 -175 351 -480
977 -552 1135 -26 58 -85 177 -131 266 -46 88 -83 164 -83 168 0 4 37 25 83
47 74 36 88 40 137 35 30 -3 124 -11 208 -17z m590 -45 c19 -6 22 -13 22 -55
0 -27 -4 -49 -8 -49 -5 0 -23 20 -41 45 -18 25 -36 45 -42 45 -5 0 -9 5 -9 10
0 11 42 13 78 4z m1918 -109 c10 -237 8 -341 -9 -635 -10 -168 -21 -393 -25
-500 l-7 -195 -40 -6 c-22 -3 -50 -11 -62 -19 -19 -12 -29 -12 -80 4 -86 27
-183 81 -245 136 -119 106 -266 334 -428 666 -115 237 -221 428 -296 537 -30
43 -54 80 -54 82 0 1 208 5 463 9 254 3 530 12 612 20 83 7 154 13 159 12 4
-1 10 -51 12 -111z m-1636 80 c10 -13 6 -23 -29 -60 l-41 -45 0 60 c0 59 0 60
29 60 16 0 34 -7 41 -15z m-322 -2015 c10 -16 13 -121 12 -463 l0 -442 -29
-25 c-75 -64 -459 -281 -493 -279 -7 0 -35 27 -63 60 -58 70 -169 163 -238
199 -26 14 -47 28 -47 32 0 4 14 31 31 59 83 142 198 407 220 509 l11 50 48 0
c62 0 182 23 240 46 67 26 164 90 203 133 18 20 45 61 58 89 13 28 26 51 29
52 3 0 11 -9 18 -20z m266 -373 c55 -87 76 -145 76 -203 0 -37 -6 -51 -37 -86
-45 -50 -85 -87 -95 -88 -4 0 -7 104 -7 230 0 129 4 228 9 225 5 -3 29 -38 54
-78z m-1740 -554 c71 -191 118 -423 132 -654 l7 -116 -32 -22 c-37 -27 -272
-140 -423 -204 -99 -42 -237 -87 -268 -87 -14 0 -13 35 17 595 l16 311 86 0
c173 1 353 91 412 207 11 20 21 37 23 37 2 0 16 -30 30 -67z m-758 -405 c-3
-73 -11 -227 -16 -343 -5 -115 -12 -244 -16 -286 l-6 -77 -34 -5 c-62 -10 -95
7 -141 75 -53 78 -110 202 -119 256 -6 40 -6 41 88 138 52 55 108 119 125 144
33 49 97 171 108 208 14 49 18 16 11 -110z"/>
<path d="M10052 19654 c-41 -29 -23 -84 28 -84 32 0 50 17 50 46 0 20 -32 54
-50 54 -3 0 -16 -7 -28 -16z"/>
<path d="M9020 14884 c-93 -19 -241 -96 -303 -155 -38 -36 -48 -52 -40 -60 9
-9 29 0 80 34 37 25 133 77 212 116 79 38 146 73 149 76 9 8 -28 4 -98 -11z"/>
<path d="M9610 14870 c-107 -10 -237 -39 -366 -83 -132 -46 -192 -73 -321
-148 -204 -118 -243 -157 -221 -219 10 -30 13 -32 47 -27 20 3 43 8 52 11 13
6 22 -12 49 -86 72 -202 158 -357 244 -436 100 -92 267 -78 381 32 33 32 45
53 54 94 27 130 5 334 -60 553 -16 56 -28 103 -26 105 2 2 84 27 183 54 229
64 254 75 254 110 0 26 -4 29 -63 39 -68 12 -78 12 -207 1z m-233 -315 c39
-116 75 -303 75 -395 1 -93 -13 -152 -46 -189 -48 -54 -150 -76 -220 -47 -70
29 -174 206 -250 423 l-35 102 32 19 c25 14 250 107 377 155 32 12 44 0 67
-68z"/>
<path d="M9867 14103 c-23 -23 23 -83 64 -83 42 0 33 40 -16 70 -36 22 -39 23
-48 13z"/>
<path d="M9813 13993 c-8 -20 39 -63 68 -63 18 0 19 2 4 30 -13 26 -42 50 -60
50 -3 0 -8 -7 -12 -17z"/>
<path d="M9392 12884 c-39 -27 -23 -84 24 -84 46 0 59 60 19 86 -18 12 -24 11
-43 -2z"/>
<path d="M10209 11994 c-20 -24 -2 -42 71 -71 36 -14 85 -39 109 -55 51 -34
84 -34 89 0 6 42 -40 73 -172 118 -82 28 -80 28 -97 8z"/>
<path d="M6293 18563 c-24 -9 -326 -465 -466 -703 -27 -47 -70 -116 -94 -154
l-45 -69 -22 40 c-43 75 -70 104 -122 128 -146 69 -274 -8 -274 -165 0 -170
111 -297 270 -308 73 -5 116 16 191 95 65 67 248 340 399 591 l102 171 42 -26
c140 -87 556 -368 556 -375 0 -32 -449 -668 -471 -668 -5 0 -9 5 -9 11 0 28
-65 90 -125 120 -60 29 -66 30 -115 20 -66 -14 -102 -33 -134 -71 -77 -92 -48
-229 71 -333 99 -87 216 -99 281 -28 28 30 267 364 596 830 48 69 102 153 118
186 17 33 39 72 49 87 11 14 19 33 19 42 0 30 -335 290 -595 461 -97 64 -202
126 -208 124 -1 0 -8 -3 -14 -6z"/>
<path d="M16182 16392 c-14 -9 -16 -20 -27 -147 -14 -159 -108 -808 -136 -936
l-21 -95 -82 81 c-165 165 -230 188 -359 126 -57 -27 -72 -40 -98 -84 -27 -47
-30 -59 -26 -117 9 -145 140 -298 307 -359 67 -24 90 -27 158 -17 97 14 189
99 232 212 22 61 80 335 104 500 9 55 20 176 26 270 6 93 13 179 15 191 l5 21
55 -19 c30 -10 74 -19 97 -19 64 -1 115 -40 156 -119 62 -123 42 -202 -103
-406 -73 -103 40 -54 161 70 134 137 168 238 124 371 -17 51 -36 82 -72 120
-51 54 -63 61 -190 114 -115 47 -157 79 -218 167 -54 76 -79 93 -108 75z"/>
<path d="M4265 12451 c-45 -9 -56 -40 -39 -114 19 -81 110 -356 141 -427 14
-30 49 -126 79 -213 29 -86 63 -175 74 -197 11 -21 20 -41 20 -42 0 -2 -35 -3
-78 -4 -151 -1 -267 -90 -288 -221 -13 -82 76 -194 179 -225 67 -20 173 -15
242 12 73 28 149 100 164 157 27 96 21 120 -162 659 -96 280 -184 532 -196
561 -27 62 -52 72 -136 54z"/>
<path d="M5552 7120 c-55 -20 -90 -39 -184 -102 -31 -21 -59 -38 -62 -38 -3 0
-33 25 -66 55 -92 82 -144 98 -300 93 -109 -4 -132 -8 -183 -31 -161 -74 -267
-271 -254 -476 3 -47 8 -95 11 -106 6 -17 -4 -25 -56 -52 -90 -47 -259 -192
-353 -304 -95 -114 -161 -223 -217 -356 -22 -54 -44 -102 -48 -106 -4 -5 -38
0 -76 12 -99 28 -169 40 -339 55 -136 12 -151 12 -166 -3 -44 -43 -112 -360
-94 -440 l6 -29 96 -7 c113 -9 260 6 399 40 54 13 106 26 115 30 10 4 19 -3
27 -20 11 -23 17 -25 74 -25 35 0 80 4 101 9 28 7 64 4 135 -11 80 -16 119
-19 222 -14 69 3 139 8 156 12 l31 6 8 -58 c5 -46 4 -59 -8 -66 -36 -19 -743
-493 -864 -578 -152 -106 -160 -119 -173 -260 -11 -121 18 -296 62 -367 15
-26 26 -33 51 -33 51 0 137 -12 137 -19 0 -4 -25 -22 -55 -40 -70 -43 -88 -65
-117 -149 -33 -98 -32 -268 2 -367 23 -65 28 -71 64 -83 22 -7 66 -15 98 -19
32 -3 58 -10 58 -14 0 -5 -4 -9 -10 -9 -5 0 -56 -29 -112 -63 -99 -62 -103
-66 -127 -123 -36 -88 -41 -246 -12 -342 12 -39 27 -77 34 -84 11 -10 194 -21
794 -47 l780 -33 424 227 c233 125 510 274 614 330 105 56 218 117 253 134 82
41 81 74 -2 88 l-36 6 0 148 0 149 50 31 c55 34 61 46 29 57 -18 7 2 23 132
107 229 146 248 171 142 182 -26 3 -53 10 -60 15 -7 6 -12 59 -12 164 -1 85
-4 160 -6 167 -3 7 27 32 71 60 53 33 74 51 66 59 -5 5 -104 16 -218 24 -115
8 -218 15 -228 17 -13 1 28 35 123 102 188 131 186 129 176 145 -6 9 -26 11
-81 6 l-74 -7 0 205 0 205 59 36 c70 43 81 61 43 69 -36 7 -238 29 -612 66
-168 17 -460 48 -648 70 -189 22 -355 40 -369 40 -13 0 -44 -14 -68 -30 -48
-33 -46 -34 -60 37 -5 27 0 39 37 85 87 107 126 192 165 363 30 130 54 291 47
310 -4 8 7 20 28 31 47 24 161 118 193 159 34 45 51 88 60 149 6 39 22 68 71
135 85 115 158 258 174 344 17 92 7 104 -68 77z m-433 -66 c139 -63 210 -199
214 -408 2 -82 -1 -97 -26 -148 -50 -102 -198 -215 -304 -233 -82 -13 -84 -62
-1 -51 l49 7 -7 -53 c-3 -29 -15 -98 -25 -153 -50 -257 -92 -350 -214 -471
-154 -154 -281 -205 -504 -203 -69 1 -137 4 -151 8 -22 6 -17 11 52 49 122 67
257 188 342 307 107 149 215 419 217 541 1 67 0 69 -32 94 -132 99 -181 177
-182 292 -2 219 111 389 298 445 65 20 207 8 274 -23z m445 -35 c-21 -71 -63
-153 -126 -247 l-52 -77 -8 50 c-5 28 -18 78 -29 113 -17 49 -18 66 -9 77 28
33 227 152 237 141 2 -1 -4 -27 -13 -57z m-905 -693 c47 -35 51 -42 51 -80 0
-95 -93 -335 -186 -479 -56 -87 -197 -229 -279 -282 -113 -72 -195 -105 -293
-117 -50 -7 -95 -9 -99 -4 -4 4 -7 46 -7 94 1 71 7 105 33 182 65 190 178 391
287 511 94 104 242 227 330 274 l47 25 33 -43 c18 -23 56 -59 83 -81z m-1175
-616 c117 -10 310 -50 329 -69 4 -4 1 -36 -8 -72 -8 -35 -15 -87 -15 -114 l0
-51 -112 -27 c-146 -35 -231 -47 -345 -47 -117 0 -123 2 -123 52 0 54 36 226
61 293 19 51 21 53 52 49 18 -2 90 -9 161 -14z m1322 -274 c13 -53 2 -67 -109
-139 -59 -38 -109 -68 -111 -66 -2 2 -6 25 -8 50 l-5 45 71 37 c39 20 87 50
106 66 43 37 48 37 56 7z m1664 -488 l0 -203 -208 -150 c-114 -82 -377 -272
-586 -423 -208 -150 -385 -276 -392 -279 -10 -4 -14 3 -14 24 0 32 -17 269
-25 350 l-5 51 83 52 c202 129 795 534 1029 704 57 41 106 75 111 76 4 0 7
-91 7 -202z m-2655 -553 c50 -3 241 -21 425 -40 184 -20 468 -46 630 -58 253
-20 298 -21 317 -10 21 14 22 13 27 -39 11 -97 27 -371 22 -375 -8 -9 -574 34
-826 62 -74 9 -227 29 -340 46 -286 42 -338 48 -392 49 -36 0 -50 5 -57 19
-17 31 -41 189 -41 268 0 67 2 74 23 83 12 4 45 7 72 5 28 -3 91 -7 140 -10z
m2818 -82 c4 -21 7 -103 8 -183 l1 -145 -63 -39 c-351 -212 -537 -330 -783
-494 -158 -106 -289 -192 -291 -190 -1 2 -5 86 -8 188 l-6 185 116 69 c164 97
791 497 988 631 29 20 32 19 38 -22z m-2678 -553 c240 -20 1498 -142 1503
-145 1 -1 5 -86 9 -189 l6 -187 -39 6 c-42 5 -443 32 -984 65 -471 29 -766 53
-778 64 -11 12 -32 119 -32 168 0 102 41 238 73 238 6 0 116 -9 242 -20z
m2403 -306 l-3 -165 -470 -250 c-258 -138 -529 -282 -602 -320 l-131 -70 -6
63 c-3 35 -7 115 -8 178 l-3 115 150 77 c140 73 153 77 197 72 47 -6 49 -5
286 144 198 124 555 320 585 322 4 0 6 -75 5 -166z m-2033 -455 c187 -12 438
-22 557 -23 l216 -1 6 -95 c3 -52 8 -128 11 -167 l5 -73 -33 0 c-17 0 -117 5
-222 10 -228 12 -1207 60 -1216 60 -10 0 -20 29 -29 86 -9 55 1 161 19 208
l12 29 167 -7 c92 -3 320 -16 507 -27z"/>
<path d="M5135 6585 c-14 -13 -25 -29 -25 -35 0 -14 37 -50 53 -50 45 0 67 70
31 97 -25 18 -31 17 -59 -12z"/>
</g>
</svg>
